PathFileType	3	(X/Y/Z)	D:\VICON_DB\Goncalves\Pilot01\09-03-2026\static_01.trc
DataRate	CameraRate	NumFrames	NumMarkers	Units	OrigDataRate	OrigDataStartFrame	OrigNumFrames
200.0	200.0	6	40	mm	200.0	161	321
Frame#	Time	LASI			RASI			LPSI			RPSI			LTHI			LTHAP			LTHAD			LKNE			LKNM			LTIB			LTIAP			LTIAD			LANK			LMED			LHEE			LTOE			LFMH			LSMH			LVMH			RTHI			RTHAP			RTHAD			RKNE			RKNM			RTIB			RTIAP			RTIAD			RANK			RMED			RHEE			RTOE			RFMH			RSMH			RVMH			RHJC			LHJC			RKJC			LKJC			RAJC			LAJC
		X1	Y1	Z1	X2	Y2	Z2	X3	Y3	Z3	X4	Y4	Z4	X5	Y5	Z5	X6	Y6	Z6	X7	Y7	Z7	X8	Y8	Z8	X9	Y9	Z9	X10	Y10	Z10	X11	Y11	Z11	X12	Y12	Z12	X13	Y13	Z13	X14	Y14	Z14	X15	Y15	Z15	X16	Y16	Z16	X17	Y17	Z17	X18	Y18	Z18	X19	Y19	Z19	X20	Y20	Z20	X21	Y21	Z21	X22	Y22	Z22	X23	Y23	Z23	X24	Y24	Z24	X25	Y25	Z25	X26	Y26	Z26	X27	Y27	Z27	X28	Y28	Z28	X29	Y29	Z29	X30	Y30	Z30	X31	Y31	Z31	X32	Y32	Z32	X33	Y33	Z33	X34	Y34	Z34	X35	Y35	Z35	X36	Y36	Z36	X37	Y37	Z37	X38	Y38	Z38	X39	Y39	Z39	X40	Y40	Z40
161	0.800000	121.048330	904.231320	-1063.386200	117.256510	905.072200	-1328.164700	293.395020	954.468080	-1191.550200	311.836330	954.293820	-1228.550800	126.643960	694.365720	-1031.341900	144.593870	768.196780	-1017.536900	170.691500	630.171450	-1007.491600	222.998760	474.926210	-1023.928200	200.216340	464.985570	-1152.089600	259.662840	281.552980	-1004.151100	202.798460	357.400450	-1059.734700	217.737530	254.953510	-1032.203700	272.741490	70.263512	-1027.174400	239.593630	81.135559	-1107.850100	315.147160	61.577507	-1080.399300	191.487440	71.901428	-1047.335900	134.250640	44.992359	-1073.082600	133.902510	39.334179	-1032.849500	149.209870	25.632467	-993.009280	161.141050	626.578120	-1380.770300	124.935620	752.736510	-1356.883500	108.407410	661.107910	-1334.968500	208.987150	490.925630	-1363.982300	206.348980	434.782680	-1243.780200	228.038730	296.452270	-1382.906200	188.803090	346.639830	-1327.830900	194.027470	265.348820	-1330.836100	269.103520	62.076553	-1356.130400	233.751280	89.991554	-1276.103400	305.137210	57.779999	-1314.107400	176.746570	69.173752	-1340.346800	126.296070	49.399811	-1315.265400	123.885990	40.552666	-1351.388100	139.952670	20.566658	-1388.824600	195.098538	832.281455	-1291.789377	197.810199	831.680113	-1102.437138	207.668065	462.854155	-1303.881250	211.607550	469.955890	-1088.008900	251.427400	76.034053	-1316.116900	256.167560	75.699535	-1067.512250
162	0.805000	121.017280	904.214780	-1063.360400	117.186330	905.058900	-1328.180700	293.190000	954.513060	-1191.780000	311.809050	954.314390	-1228.520300	126.626480	694.349300	-1031.324700	144.555850	768.180420	-1017.536400	170.657960	630.156130	-1007.480800	222.993360	474.902070	-1023.921000	200.202840	464.987180	-1152.092700	259.672210	281.550350	-1004.139900	202.795360	357.412930	-1059.751500	217.732480	254.947040	-1032.195400	272.891170	70.199020	-1027.238900	239.588990	81.140129	-1107.861900	315.147550	61.569920	-1080.389200	191.506810	71.880447	-1047.332200	134.252370	44.988331	-1073.064200	133.888090	39.326065	-1032.849900	149.221710	25.612026	-993.006040	161.084000	626.599910	-1380.748400	124.898670	752.710880	-1356.887800	108.368100	661.101320	-1334.963400	208.977780	490.893830	-1363.958500	206.490330	434.419590	-1243.811800	228.013340	296.466250	-1382.915800	188.786390	346.643520	-1327.813400	194.009290	265.336940	-1330.827600	269.090610	62.092312	-1356.132600	233.752750	89.984154	-1276.104700	305.150630	57.771355	-1314.077500	176.769730	69.166786	-1340.354400	126.313490	49.385334	-1315.228500	123.984000	40.604740	-1351.359700	139.891660	20.574163	-1388.853100	195.050819	832.277922	-1291.810567	197.790430	831.674270	-1102.430771	207.734055	462.656710	-1303.885150	211.598100	469.944625	-1088.006850	251.421680	76.038233	-1316.118650	256.240080	75.669575	-1067.550400
163	0.810000	120.963460	904.200200	-1063.343100	117.148340	905.039670	-1328.149900	292.744020	954.525020	-1192.270000	311.749420	954.297670	-1228.518300	126.608350	694.331730	-1031.317100	144.516310	768.168210	-1017.532600	170.666930	630.128780	-1007.453900	222.990550	474.880490	-1023.904700	200.206380	464.979030	-1152.048200	259.657040	281.532200	-1004.142000	202.820920	357.368290	-1059.690700	217.743670	254.942290	-1032.187500	273.065580	70.194649	-1026.955800	239.552150	81.152008	-1107.875400	315.169310	61.548107	-1080.353000	191.515080	71.880219	-1047.329500	134.257750	45.000027	-1073.067300	133.893250	39.315228	-1032.839600	149.221020	25.594334	-993.013370	161.034500	626.595460	-1380.742800	124.989760	752.712650	-1356.704000	108.342460	661.107600	-1334.943200	208.926330	490.921360	-1363.959200	206.508650	434.344060	-1243.818000	228.007680	296.472200	-1382.889500	188.769710	346.642030	-1327.805500	193.986080	265.340300	-1330.819100	269.093080	62.103146	-1356.133700	233.758670	89.971237	-1276.101800	305.140930	57.782917	-1314.094100	176.755000	69.174500	-1340.356100	126.300920	49.395004	-1315.242300	123.981870	40.600784	-1351.356300	139.923710	20.573811	-1388.830200	194.994560	832.279461	-1291.775945	197.722861	831.679133	-1102.405046	207.717490	462.632710	-1303.888600	211.598465	469.929760	-1087.976450	251.425875	76.037192	-1316.117750	256.308865	75.673328	-1067.415600
164	0.815000	120.911570	904.197810	-1063.324700	117.042740	905.024290	-1328.199300	292.623990	954.389040	-1192.490100	311.704710	954.293950	-1228.492400	126.597890	694.321170	-1031.280800	144.507980	768.144170	-1017.483900	170.653410	630.113830	-1007.437000	222.992600	474.884830	-1023.890700	200.162570	464.983860	-1152.076000	259.664430	281.513700	-1004.140900	202.790100	357.365600	-1059.721400	217.742600	254.928650	-1032.172900	272.978240	70.282745	-1026.976400	239.563930	81.131104	-1107.880400	315.169430	61.545361	-1080.335000	191.462980	71.841652	-1047.285800	134.252170	44.996758	-1073.054300	133.885100	39.311146	-1032.831200	149.222850	25.576567	-993.009700	161.015620	626.591190	-1380.730200	124.822780	752.690490	-1356.829500	108.288970	661.125180	-1334.959100	208.907460	490.903080	-1363.951300	206.226820	434.756810	-1243.768300	227.990170	296.460480	-1382.889300	188.754180	346.614140	-1327.778000	194.007080	265.329100	-1330.797400	269.095340	62.106243	-1356.134500	233.748860	89.959747	-1276.096800	305.126920	57.787601	-1314.083500	176.744570	69.153786	-1340.332900	126.292600	49.387329	-1315.246600	123.997960	40.588009	-1351.338000	139.906970	20.577471	-1388.850800	194.876435	832.221496	-1291.825412	197.643091	831.630468	-1102.409804	207.567140	462.829945	-1303.859800	211.577585	469.934345	-1087.983350	251.422100	76.032995	-1316.115650	256.271085	75.706924	-1067.428400
165	0.820000	120.857480	904.182370	-1063.297400	117.017550	905.011410	-1328.142600	292.420040	954.396060	-1192.620000	311.646330	954.302730	-1228.474600	126.579360	694.298710	-1031.265100	144.456740	768.143130	-1017.497100	170.630170	630.103450	-1007.414600	223.000930	474.860630	-1023.891700	200.140370	464.977200	-1152.066300	259.662630	281.503020	-1004.141400	202.796460	357.366120	-1059.691900	217.748260	254.919740	-1032.163900	272.910160	70.147598	-1027.219500	239.569980	81.113281	-1107.862900	315.149930	61.562992	-1080.360100	191.501680	71.912117	-1047.297000	134.263760	44.987297	-1073.060100	133.885480	39.314972	-1032.826900	149.234020	25.555979	-993.022030	160.957950	626.598750	-1380.726600	124.882190	752.693540	-1356.702500	108.257610	661.075740	-1334.925200	208.865430	490.917850	-1363.961300	206.218670	434.736180	-1243.754400	227.971180	296.482180	-1382.878500	188.723390	346.620790	-1327.791500	193.971370	265.311680	-1330.809600	269.093840	62.118065	-1356.140600	233.746660	89.939728	-1276.095900	305.130950	57.784122	-1314.070200	176.746920	69.137169	-1340.318200	126.311490	49.371689	-1315.220800	123.993410	40.594181	-1351.345500	139.991840	20.451427	-1388.731800	194.844726	832.230397	-1291.766037	197.590738	831.637533	-1102.369811	207.542050	462.827015	-1303.857850	211.570650	469.918915	-1087.979000	251.420250	76.028897	-1316.118250	256.240070	75.630439	-1067.541200
166	0.825000	120.799270	904.174870	-1063.278800	116.964490	904.985410	-1328.107800	292.474000	954.489990	-1192.620000	311.600890	954.286870	-1228.460400	126.552860	694.278690	-1031.249900	144.405700	768.141240	-1017.495200	170.619030	630.091860	-1007.384900	222.992420	474.841520	-1023.876500	200.125460	464.974950	-1152.054900	259.648070	281.503080	-1004.133000	202.799240	357.353850	-1059.674800	217.733220	254.920360	-1032.154900	273.010800	70.187370	-1026.937300	239.574740	81.106216	-1107.863600	315.180660	61.536118	-1080.321700	191.505250	71.877571	-1047.321700	134.247940	44.981415	-1073.046000	133.880620	39.304993	-1032.819700	149.222060	25.565842	-993.015440	160.918210	626.592350	-1380.725700	124.696750	752.677550	-1356.821700	108.190840	661.088320	-1334.967300	208.821870	490.904880	-1363.959000	206.355560	434.320430	-1243.799600	227.924120	296.472660	-1382.905400	188.693560	346.608120	-1327.769400	193.976410	265.292390	-1330.772600	269.111570	62.084576	-1356.110400	233.751100	89.933899	-1276.095000	305.120480	57.793854	-1314.092900	176.750520	69.154564	-1340.325600	126.318500	49.378716	-1315.198200	123.981230	40.607815	-1351.354100	139.908690	20.559416	-1388.823200	194.821698	832.232213	-1291.727866	197.564040	831.652576	-1102.342325	207.588715	462.612655	-1303.879300	211.558940	469.908235	-1087.965700	251.431335	76.009237	-1316.102700	256.292770	75.646793	-1067.400450
